<?xml version="1.0" standalone="no"?>
<!DOCTYPE svg PUBLIC "-//W3C//DTD SVG 20010904//EN"
 "http://www.w3.org/TR/2001/REC-SVG-20010904/DTD/svg10.dtd">
<svg version="1.0" xmlns="http://www.w3.org/2000/svg"
 width="808.000000pt" height="808.000000pt" viewBox="0 0 808.000000 808.000000"
 preserveAspectRatio="xMidYMid meet">
<metadata>
Created by potrace 1.14, written by Peter Selinger 2001-2017
</metadata>
<g transform="translate(0.000000,808.000000) scale(0.100000,-0.100000)"
fill="#000000" stroke="none">
<path d="M0 4040 l0 -2940 2940 0 2940 0 0 260 0 260 1100 0 1100 0 0 840 0
840 -1100 0 -1100 0 0 1840 0 1840 -2940 0 -2940 0 0 -2940z m1060 490 l0
-450 271 0 c177 0 268 -3 264 -10 -4 -6 -135 -10 -361 -10 l-354 0 0 460 0
460 90 0 90 0 0 -450z m1420 440 c0 -6 -97 -10 -270 -10 l-270 0 0 -205 0
-205 210 0 c133 0 210 -4 210 -10 0 -6 -77 -10 -210 -10 l-210 0 0 -225 0
-225 270 0 c173 0 270 -4 270 -10 0 -6 -127 -10 -360 -10 l-360 0 0 460 0 460
360 0 c233 0 360 -4 360 -10z m510 -19 c131 -42 246 -152 297 -285 14 -39 30
-75 35 -81 4 -5 8 82 8 193 l0 202 90 0 90 0 0 -460 0 -460 -89 0 -88 0 -6
213 c-4 136 -11 237 -21 282 -34 151 -128 285 -242 347 -52 28 -157 58 -206
58 l-28 0 -2 -447 -3 -448 -90 0 -90 0 -3 459 -2 459 142 -5 c107 -4 159 -11
208 -27z m1012 15 c178 -38 316 -168 370 -346 12 -42 13 -32 18 155 l5 200 90
0 90 0 0 -455 0 -455 -90 0 -90 0 -6 235 c-5 223 -6 239 -32 314 -36 102 -65
150 -128 213 -75 75 -209 133 -306 133 l-33 0 0 -450 0 -450 -90 0 -90 0 0
460 0 460 113 0 c61 0 142 -7 179 -14z m958 -446 l0 -460 -90 0 -90 0 0 460 0
460 90 0 90 0 0 -460z m909 -1661 c118 -25 190 -108 199 -229 10 -139 -42
-235 -152 -281 l-54 -22 99 -148 c54 -82 99 -151 99 -154 0 -3 -42 -4 -92 -3
l-93 3 -98 143 -98 143 -102 -3 -102 -3 -3 -142 -3 -143 -79 0 -80 0 0 415 0
415 80 0 80 0 0 -122 c0 -67 4 -118 8 -113 5 6 16 36 26 67 22 75 70 137 126
166 50 25 152 30 239 11z m-886 -413 c87 -223 157 -409 157 -415 0 -7 -31 -11
-84 -11 l-83 0 -65 168 -65 167 -175 3 -175 2 -58 -170 c-31 -93 -62 -170 -67
-170 -6 0 -8 6 -5 13 2 6 67 193 143 415 l138 402 92 0 91 0 156 -404z m1847
394 l-175 -5 -3 -407 -2 -408 -80 0 -80 0 0 303 c0 167 -3 352 -7 410 l-6 107
-171 3 c-94 1 25 3 264 3 247 0 360 -3 260 -6z"/>
<path d="M5677 2846 c-71 -20 -116 -63 -146 -141 -21 -55 -47 -203 -55 -307
l-5 -68 126 0 c146 0 194 11 240 57 49 50 66 121 61 257 -6 157 -31 198 -128
210 -25 3 -66 -1 -93 -8z"/>
<path d="M4650 2819 c0 -2 -34 -102 -75 -222 l-75 -217 165 0 c91 0 165 2 165
4 0 12 -163 423 -171 431 -5 5 -9 7 -9 4z"/>
</g>
</svg>
